<svg width="35" height="35" viewBox="0 0 35 35" fill="none" xmlns="http://www.w3.org/2000/svg">
<g clip-path="url(#clip0_271_271)">
<path d="M33.5417 13.0944C33.1549 13.0944 32.784 13.248 32.5105 13.5215C32.237 13.795 32.0833 14.1659 32.0833 14.5527V21.875H26.25C25.0897 21.875 23.9769 22.3359 23.1564 23.1564C22.3359 23.9769 21.875 25.0897 21.875 26.25V32.0833H7.29167C6.13134 32.0833 5.01855 31.6224 4.19807 30.8019C3.3776 29.9815 2.91667 28.8687 2.91667 27.7083V7.29167C2.91667 6.13135 3.3776 5.01855 4.19807 4.19808C5.01855 3.3776 6.13134 2.91667 7.29167 2.91667H20.4779C20.8647 2.91667 21.2356 2.76302 21.5091 2.48953C21.7826 2.21604 21.9363 1.84511 21.9363 1.45833C21.9363 1.07156 21.7826 0.700627 21.5091 0.427136C21.2356 0.153645 20.8647 0 20.4779 0L7.29167 0C5.35851 0.00231563 3.50519 0.771286 2.13824 2.13824C0.771286 3.50519 0.00231563 5.35851 0 7.29167L0 27.7083C0.00231563 29.6415 0.771286 31.4948 2.13824 32.8618C3.50519 34.2287 5.35851 34.9977 7.29167 35H23.8335C24.7915 35.0027 25.7406 34.8155 26.6257 34.449C27.5108 34.0825 28.3145 33.5441 28.9902 32.865L32.8635 28.9888C33.5428 28.3134 34.0813 27.51 34.448 26.6251C34.8147 25.7402 35.0024 24.7914 35 23.8335V14.5527C35 14.1659 34.8464 13.795 34.5729 13.5215C34.2994 13.248 33.9284 13.0944 33.5417 13.0944ZM26.9281 30.8029C26.3419 31.3877 25.6006 31.7925 24.7917 31.9696V26.25C24.7917 25.8632 24.9453 25.4923 25.2188 25.2188C25.4923 24.9453 25.8632 24.7917 26.25 24.7917H31.974C31.7936 25.5989 31.3892 26.3389 30.8073 26.9267L26.9281 30.8029Z" fill="white"/>
<path d="M13.1993 22.8031C12.3027 22.8035 11.4427 22.4471 10.8092 21.8125L3.58315 14.5891C2.80562 13.8113 2.80562 12.5506 3.58315 11.7728C4.36092 10.9953 5.6217 10.9953 6.39948 11.7728L13.1993 18.5726L31.1888 0.583147C31.9666 -0.194382 33.2273 -0.194382 34.0051 0.583147C34.7827 1.36092 34.7827 2.6217 34.0051 3.39948L15.5894 21.8125C14.9559 22.4471 14.096 22.8035 13.1993 22.8031Z" fill="white"/>
</g>
<defs>
<clipPath id="clip0_271_271">
<rect width="35" height="35" fill="white"/>
</clipPath>
</defs>
</svg>
