<svg width="28" height="28" viewBox="0 0 28 28" fill="none" xmlns="http://www.w3.org/2000/svg">
<path d="M12.949 1.5H4.36224V1.5C2.78147 1.5 1.5 2.78147 1.5 4.36224V22.6538C1.5 24.778 3.22197 26.4999 5.34614 26.4999V26.4999H12.949" stroke="#FFD700" stroke-width="3"/>
<path d="M27.5607 15.0606C28.1464 14.4748 28.1464 13.5251 27.5607 12.9393L18.0147 3.39339C17.429 2.80761 16.4792 2.80761 15.8934 3.39339C15.3076 3.97918 15.3076 4.92892 15.8934 5.51471L24.3787 14L15.8934 22.4852C15.3076 23.071 15.3076 24.0208 15.8934 24.6065C16.4792 25.1923 17.429 25.1923 18.0147 24.6065L27.5607 15.0606ZM7.26927 15.5L26.5 15.5V12.5L7.26927 12.5V15.5Z" fill="#FFD700"/>
</svg>
