<svg width="656" height="81" viewBox="0 0 656 81" fill="none" xmlns="http://www.w3.org/2000/svg">
<path d="M63.5 1.5H17V1.5C11.8706 1.5 9.30593 1.5 7.3134 2.41857C5.15108 3.41541 3.41541 5.15108 2.41857 7.3134C1.5 9.30593 1.5 11.8706 1.5 17V59.5C1.5 68.9281 1.5 73.6421 4.42893 76.5711C7.35786 79.5 12.0719 79.5 21.5 79.5H63.5" stroke="white" stroke-width="3"/>
<path d="M62.5 79.5L641.735 79.5V79.5C644.305 79.5 645.59 79.5 646.654 79.2651C650.457 78.4263 653.426 75.4567 654.265 71.6545C654.5 70.59 654.5 69.3051 654.5 66.7351V21.5C654.5 12.0719 654.5 7.35787 651.571 4.42893C648.642 1.5 643.928 1.5 634.5 1.5L123.675 1.5" stroke="white" stroke-width="3"/>
</svg>
